<svg xmlns="http://www.w3.org/2000/svg" version="1.1" xmlns:xlink="http://www.w3.org/1999/xlink" xmlns:svgjs="http://svgjs.dev/svgjs" width="308.7612359841165" height="304.915625" viewBox="0 0 1500 2486"><g transform="matrix(1,0,0,1,1.6337285640111077,1.006477732793428)"><svg viewBox="0 0 149 247" data-background-color="#ffffff" preserveAspectRatio="xMidYMid meet" height="2486" width="1500" xmlns="http://www.w3.org/2000/svg" xmlns:xlink="http://www.w3.org/1999/xlink"><g id="tight-bounds" transform="matrix(1,0,0,1,-0.16228370402509995,-0.09999999999999432)"><svg viewBox="0 0 149.3245674080502 247.2" height="247.2" width="149.3245674080502"><g><svg viewBox="0 0 188.40810753623188 311.90101529432354" height="247.2" width="149.3245674080502"><g><svg viewBox="0 0 188.40810753623188 311.90101529432354" height="311.90101529432354" width="188.40810753623188"><g id="textblocktransform"><svg viewBox="0 0 188.40810753623188 311.90101529432354" height="311.90101529432354" width="188.40810753623188" id="textblock"><g><svg viewBox="0 0 188.40810753623188 245.672304" height="245.672304" width="188.40810753623188"><g transform="matrix(1,0,0,1,0,0)"><svg width="188.40810753623188" viewBox="2.27 -40.43 31.01 40.43" height="245.672304" data-palette-color="#c8c8c8"><g class="wordmark-text-0" data-fill-palette-color="primary" id="text-0"><path d="M11.06-40.43L11.06 0 9.3 0 9.3-40.43 11.06-40.43ZM7.54-40.43L7.54 0 5.79 0 5.79-40.43 7.54-40.43ZM4.03-40.43L4.03 0 2.27 0 2.27-40.43 4.03-40.43ZM14.58-15.82L14.58-8.79 33.28-8.79 33.28-7.03 14.58-7.03 14.58-5.27 33.28-5.27 33.28-3.52 14.58-3.52 14.58-1.76 33.28-1.76 33.28 0 12.82 0 12.82-40.43 33.28-40.43 33.28-38.67 14.58-38.67 14.58-36.91 33.28-36.91 33.28-35.16 14.58-35.16 14.58-33.4 33.28-33.4 33.28-31.64 14.58-31.64 14.58-24.61 24.17-24.61 24.17-22.85 14.58-22.85 14.58-21.09 24.17-21.09 24.17-19.34 14.58-19.34 14.58-17.58 24.17-17.58 24.17-15.82 14.58-15.82Z" fill="#c8c8c8" data-fill-palette-color="primary"></path></g></svg></g></svg></g><g transform="matrix(1,0,0,1,0,303.669638839104)"><svg viewBox="0 0 178.98770215942028 8.231376455219527" height="8.231376455219527" width="178.98770215942028"><g transform="matrix(1,0,0,1,0,0)"><svg width="178.98770215942028" viewBox="1.5 -36 1000.17 46" height="8.231376455219527" data-palette-color="#000000"><path d="M36-9.25L36-9.25Q36-7.1 35.1-5.23 34.2-3.35 32.18-1.98 30.15-0.6 26.93 0.2 23.7 1 19 1L19 1Q16.35 1 13.83 0.6 11.3 0.2 9.03-0.55 6.75-1.3 4.83-2.38 2.9-3.45 1.5-4.75L1.5-4.75 4-7.75Q6.85-5.3 10.65-4.03 14.45-2.75 19-2.75L19-2.75Q24.05-2.75 26.15-4.15 28.25-5.55 28.25-8L28.25-8Q28.25-9.9 26.6-11.2 24.95-12.5 21-13.75L21-13.75 11.5-16.75Q6.8-18.25 4.4-20.58 2-22.9 2-26.5L2-26.5Q2-28.35 2.88-30.08 3.75-31.8 5.6-33.13 7.45-34.45 10.33-35.23 13.2-36 17.25-36L17.25-36Q19.7-36 22.13-35.6 24.55-35.2 26.78-34.45 29-33.7 30.93-32.63 32.85-31.55 34.25-30.25L34.25-30.25 31.75-27.25Q28.9-29.7 25.35-30.98 21.8-32.25 17.25-32.25L17.25-32.25Q13.5-32.25 11.63-30.95 9.75-29.65 9.75-27.75L9.75-27.75Q9.75-26.7 10.1-25.93 10.45-25.15 11.28-24.48 12.1-23.8 13.45-23.23 14.8-22.65 16.8-22L16.8-22 26.25-19Q30.8-17.55 33.4-15.2 36-12.85 36-9.25ZM55-2.25L55-2.25Q56.6-2.25 58-2.85 59.4-3.45 60.45-4.73 61.5-6 62.12-8.05 62.75-10.1 62.75-13L62.75-13Q62.75-15.9 62.12-17.95 61.5-20 60.45-21.28 59.4-22.55 58-23.15 56.6-23.75 55-23.75L55-23.75Q53.4-23.75 52-23.15 50.6-22.55 49.55-21.28 48.5-20 47.87-17.95 47.25-15.9 47.25-13L47.25-13Q47.25-10.1 47.87-8.05 48.5-6 49.55-4.73 50.6-3.45 52-2.85 53.4-2.25 55-2.25ZM55-27L55-27Q58.35-27 61.17-26.08 64-25.15 66-23.38 68-21.6 69.12-18.98 70.25-16.35 70.25-13L70.25-13Q70.25-9.6 69.12-7 68-4.4 66-2.63 64-0.85 61.17 0.08 58.35 1 55 1L55 1Q51.6 1 48.8 0.08 46-0.85 44-2.63 42-4.4 40.87-7 39.75-9.6 39.75-13L39.75-13Q39.75-16.35 40.87-18.98 42-21.6 44-23.38 46-25.15 48.8-26.08 51.6-27 55-27ZM77.25-25L77.25-25.5Q77.25-30.4 80.3-33.2 83.34-36 89-36L89-36Q90.9-36 92.82-35.5 94.75-35 96.25-34.25L96.25-34.25 94.75-31Q93.8-31.55 92.4-32.02 91-32.5 89.5-32.5L89.5-32.5Q88.45-32.5 87.5-32.1 86.55-31.7 85.82-30.88 85.09-30.05 84.67-28.7 84.25-27.35 84.25-25.5L84.25-25.5 84.25-25 92-25 92-21.5 84.25-21.5 84.25 0 77.25 0 77.25-21.5 72.5-21.5 72.5-25 77.25-25ZM99.74-9.5L99.74-22.5 94.99-22.5 94.99-26 99.74-26 99.74-34 106.74-34 106.74-26 114.49-26 114.49-22.5 106.74-22.5 106.74-9.5Q106.74-7.6 107.17-6.28 107.59-4.95 108.32-4.13 109.04-3.3 109.99-2.9 110.94-2.5 111.99-2.5L111.99-2.5Q113.49-2.5 114.89-2.98 116.29-3.45 117.24-4L117.24-4 118.74-0.75Q117.24 0 115.32 0.5 113.39 1 111.49 1L111.49 1Q105.84 1 102.79-1.8 99.74-4.6 99.74-9.5L99.74-9.5ZM143.99-23.5L148.99-4.75 149.49-4.75 155.24-26 162.49-26 155.49 0 144.99 0 140.24-18 139.74-18 134.99 0 124.49 0 117.49-26 124.74-26 130.49-4.75 130.99-4.75 135.99-23.5 143.99-23.5ZM171.74-8.25L171.74-8.25Q171.74-3.5 177.49-3.5L177.49-3.5 184.49-3.5 184.49-13 177.49-13Q171.74-13 171.74-8.25ZM177.49-16.5L184.49-16.5Q184.49-20.1 182.61-21.8 180.74-23.5 177.74-23.5L177.74-23.5Q175.49-23.5 173.34-22.83 171.19-22.15 169.49-21L169.49-21 167.74-24Q168.84-24.75 170.16-25.3 171.49-25.85 172.89-26.23 174.29-26.6 175.66-26.8 177.04-27 178.24-27L178.24-27Q181.44-27 183.89-26.25 186.34-25.5 188.04-24.1 189.74-22.7 190.61-20.78 191.49-18.85 191.49-16.5L191.49-16.5 191.49 0 177.49 0Q170.69 0 167.46-2.05 164.24-4.1 164.24-8.25L164.24-8.25Q164.24-12.4 167.46-14.45 170.69-16.5 177.49-16.5L177.49-16.5ZM217.99-26L217.99-22.5 211.99-22.5Q208.59-22.5 206.79-20.68 204.99-18.85 204.99-15.25L204.99-15.25 204.99 0 197.99 0 197.99-15.25Q197.99-20.35 201.21-23.18 204.44-26 210.49-26L210.49-26 217.99-26ZM235.48-2.5L235.48-2.5Q237.93-2.5 240.06-3.35 242.18-4.2 244.23-5.75L244.23-5.75 246.23-2.75Q245.28-1.9 244.01-1.2 242.73-0.5 241.26-0.03 239.78 0.45 238.18 0.73 236.58 1 234.98 1L234.98 1Q231.43 1 228.51 0.08 225.58-0.85 223.53-2.63 221.48-4.4 220.36-7 219.23-9.6 219.23-13L219.23-13Q219.23-16.35 220.31-18.98 221.38-21.6 223.31-23.38 225.23-25.15 227.88-26.08 230.53-27 233.73-27L233.73-27Q236.73-27 239.38-26.1 242.03-25.2 243.98-23.48 245.93-21.75 247.08-19.3 248.23-16.85 248.23-13.75L248.23-13.75 248.23-10.25 226.88-10.25Q227.48-6.1 229.76-4.3 232.03-2.5 235.48-2.5ZM233.73-23.75L233.73-23.75Q232.28-23.75 231.03-23.2 229.78-22.65 228.86-21.45 227.93-20.25 227.36-18.35 226.78-16.45 226.73-13.75L226.73-13.75 240.73-13.75Q240.73-16.35 240.13-18.25 239.53-20.15 238.56-21.38 237.58-22.6 236.31-23.18 235.03-23.75 233.73-23.75ZM271.48-35L287.98-35Q292.48-35 296.15-33.88 299.83-32.75 302.45-30.55 305.08-28.35 306.53-25.08 307.98-21.8 307.98-17.5L307.98-17.5Q307.98-13.2 306.53-9.93 305.08-6.65 302.45-4.45 299.83-2.25 296.15-1.13 292.48 0 287.98 0L287.98 0 271.48 0 271.48-35ZM287.98-31.25L278.73-31.25 278.73-3.75 287.98-3.75Q290.53-3.75 292.75-4.53 294.98-5.3 296.63-6.98 298.28-8.65 299.25-11.25 300.23-13.85 300.23-17.5L300.23-17.5Q300.23-21.15 299.25-23.75 298.28-26.35 296.63-28.03 294.98-29.7 292.75-30.48 290.53-31.25 287.98-31.25L287.98-31.25ZM328.48-2.5L328.48-2.5Q330.93-2.5 333.05-3.35 335.18-4.2 337.23-5.75L337.23-5.75 339.23-2.75Q338.28-1.9 337-1.2 335.73-0.5 334.25-0.03 332.78 0.45 331.18 0.73 329.58 1 327.98 1L327.98 1Q324.43 1 321.5 0.08 318.58-0.85 316.53-2.63 314.48-4.4 313.35-7 312.23-9.6 312.23-13L312.23-13Q312.23-16.35 313.3-18.98 314.38-21.6 316.3-23.38 318.23-25.15 320.88-26.08 323.53-27 326.73-27L326.73-27Q329.73-27 332.38-26.1 335.03-25.2 336.98-23.48 338.93-21.75 340.08-19.3 341.23-16.85 341.23-13.75L341.23-13.75 341.23-10.25 319.88-10.25Q320.48-6.1 322.75-4.3 325.03-2.5 328.48-2.5ZM326.73-23.75L326.73-23.75Q325.28-23.75 324.03-23.2 322.78-22.65 321.85-21.45 320.93-20.25 320.35-18.35 319.78-16.45 319.73-13.75L319.73-13.75 333.73-13.75Q333.73-16.35 333.13-18.25 332.53-20.15 331.55-21.38 330.58-22.6 329.3-23.18 328.03-23.75 326.73-23.75ZM373.97-26L363.97 0 352.97 0 342.97-26 349.97-26 358.22-4.25 358.72-4.25 366.97-26 373.97-26ZM391.97-2.5L391.97-2.5Q394.42-2.5 396.55-3.35 398.67-4.2 400.72-5.75L400.72-5.75 402.72-2.75Q401.77-1.9 400.5-1.2 399.22-0.5 397.75-0.03 396.27 0.45 394.67 0.73 393.07 1 391.47 1L391.47 1Q387.92 1 385 0.08 382.07-0.85 380.02-2.63 377.97-4.4 376.85-7 375.72-9.6 375.72-13L375.72-13Q375.72-16.35 376.8-18.98 377.87-21.6 379.8-23.38 381.72-25.15 384.37-26.08 387.02-27 390.22-27L390.22-27Q393.22-27 395.87-26.1 398.52-25.2 400.47-23.48 402.42-21.75 403.57-19.3 404.72-16.85 404.72-13.75L404.72-13.75 404.72-10.25 383.37-10.25Q383.97-6.1 386.25-4.3 388.52-2.5 391.97-2.5ZM390.22-23.75L390.22-23.75Q388.77-23.75 387.52-23.2 386.27-22.65 385.35-21.45 384.42-20.25 383.85-18.35 383.27-16.45 383.22-13.75L383.22-13.75 397.22-13.75Q397.22-16.35 396.62-18.25 396.02-20.15 395.05-21.38 394.07-22.6 392.8-23.18 391.52-23.75 390.22-23.75ZM417.47-35L417.47 0 410.47 0 410.47-35 417.47-35ZM438.47-2.25L438.47-2.25Q440.07-2.25 441.47-2.85 442.87-3.45 443.92-4.73 444.97-6 445.59-8.05 446.22-10.1 446.22-13L446.22-13Q446.22-15.9 445.59-17.95 444.97-20 443.92-21.28 442.87-22.55 441.47-23.15 440.07-23.75 438.47-23.75L438.47-23.75Q436.87-23.75 435.47-23.15 434.07-22.55 433.02-21.28 431.97-20 431.34-17.95 430.72-15.9 430.72-13L430.72-13Q430.72-10.1 431.34-8.05 431.97-6 433.02-4.73 434.07-3.45 435.47-2.85 436.87-2.25 438.47-2.25ZM438.47-27L438.47-27Q441.82-27 444.64-26.08 447.47-25.15 449.47-23.38 451.47-21.6 452.59-18.98 453.72-16.35 453.72-13L453.72-13Q453.72-9.6 452.59-7 451.47-4.4 449.47-2.63 447.47-0.85 444.64 0.08 441.82 1 438.47 1L438.47 1Q435.07 1 432.27 0.08 429.47-0.85 427.47-2.63 425.47-4.4 424.34-7 423.22-9.6 423.22-13L423.22-13Q423.22-16.35 424.34-18.98 425.47-21.6 427.47-23.38 429.47-25.15 432.27-26.08 435.07-27 438.47-27ZM472.71-22.5L466.46-22.5 466.46-3.5 472.71-3.5Q474.41-3.5 475.84-4.03 477.26-4.55 478.29-5.7 479.31-6.85 479.89-8.65 480.46-10.45 480.46-13L480.46-13Q480.46-15.55 479.89-17.35 479.31-19.15 478.29-20.3 477.26-21.45 475.84-21.98 474.41-22.5 472.71-22.5L472.71-22.5ZM459.46-26L472.71-26Q476.16-26 478.99-25.1 481.81-24.2 483.81-22.5 485.81-20.8 486.89-18.4 487.96-16 487.96-13L487.96-13Q487.96-10 486.89-7.6 485.81-5.2 483.81-3.5 481.81-1.8 478.99-0.9 476.16 0 472.71 0L472.71 0 466.46 0 466.46 9 459.46 9 459.46-26ZM508.71-2.5L508.71-2.5Q511.16-2.5 513.29-3.35 515.41-4.2 517.46-5.75L517.46-5.75 519.46-2.75Q518.51-1.9 517.24-1.2 515.96-0.5 514.49-0.03 513.01 0.45 511.41 0.73 509.81 1 508.21 1L508.21 1Q504.66 1 501.74 0.08 498.81-0.85 496.76-2.63 494.71-4.4 493.59-7 492.46-9.6 492.46-13L492.46-13Q492.46-16.35 493.54-18.98 494.61-21.6 496.54-23.38 498.46-25.15 501.11-26.08 503.76-27 506.96-27L506.96-27Q509.96-27 512.61-26.1 515.26-25.2 517.21-23.48 519.16-21.75 520.31-19.3 521.46-16.85 521.46-13.75L521.46-13.75 521.46-10.25 500.11-10.25Q500.71-6.1 502.99-4.3 505.26-2.5 508.71-2.5ZM506.96-23.75L506.96-23.75Q505.51-23.75 504.26-23.2 503.01-22.65 502.09-21.45 501.16-20.25 500.59-18.35 500.01-16.45 499.96-13.75L499.96-13.75 513.96-13.75Q513.96-16.35 513.36-18.25 512.76-20.15 511.79-21.38 510.81-22.6 509.54-23.18 508.26-23.75 506.96-23.75ZM546.96-26L546.96-22.5 540.96-22.5Q537.56-22.5 535.76-20.68 533.96-18.85 533.96-15.25L533.96-15.25 533.96 0 526.96 0 526.96-15.25Q526.96-20.35 530.18-23.18 533.41-26 539.46-26L539.46-26 546.96-26ZM594.45-35L600.95-35 588.95 0 582.45 0 594.45-35ZM634.95-31.25L611.7-31.25 611.7-19.75 629.95-19.75 629.95-16 611.7-16 611.7-3.75 634.95-3.75 634.95 0 604.45 0 604.45-35 634.95-35 634.95-31.25ZM658.69-22.5L652.44-22.5Q648.84-22.5 646.77-20.28 644.69-18.05 644.69-13.5L644.69-13.5Q644.69-8.95 646.77-6.73 648.84-4.5 652.44-4.5L652.44-4.5 658.69-4.5 658.69-22.5ZM665.69-26L665.69-0.5Q665.69 1.85 664.79 3.78 663.89 5.7 662.12 7.1 660.34 8.5 657.67 9.25 654.99 10 651.44 10L651.44 10Q650.24 10 648.87 9.83 647.49 9.65 646.09 9.28 644.69 8.9 643.37 8.33 642.04 7.75 640.94 7L640.94 7 642.69 4Q644.39 5.15 646.54 5.83 648.69 6.5 650.94 6.5L650.94 6.5Q654.69 6.5 656.69 4.8 658.69 3.1 658.69-0.5L658.69-0.5 658.69-1 652.44-1Q648.99-1 646.17-1.9 643.34-2.8 641.34-4.45 639.34-6.1 638.27-8.4 637.19-10.7 637.19-13.5L637.19-13.5Q637.19-16.3 638.27-18.6 639.34-20.9 641.34-22.55 643.34-24.2 646.17-25.1 648.99-26 652.44-26L652.44-26 665.69-26ZM687.69-2.5L687.69-2.5Q690.14-2.5 692.27-3.35 694.39-4.2 696.44-5.75L696.44-5.75 698.44-2.75Q697.49-1.9 696.22-1.2 694.94-0.5 693.47-0.03 691.99 0.45 690.39 0.73 688.79 1 687.19 1L687.19 1Q683.64 1 680.72 0.08 677.79-0.85 675.74-2.63 673.69-4.4 672.57-7 671.44-9.6 671.44-13L671.44-13Q671.44-16.35 672.52-18.98 673.59-21.6 675.52-23.38 677.44-25.15 680.09-26.08 682.74-27 685.94-27L685.94-27Q688.94-27 691.59-26.1 694.24-25.2 696.19-23.48 698.14-21.75 699.29-19.3 700.44-16.85 700.44-13.75L700.44-13.75 700.44-10.25 679.09-10.25Q679.69-6.1 681.97-4.3 684.24-2.5 687.69-2.5ZM685.94-23.75L685.94-23.75Q684.49-23.75 683.24-23.2 681.99-22.65 681.07-21.45 680.14-20.25 679.57-18.35 678.99-16.45 678.94-13.75L678.94-13.75 692.94-13.75Q692.94-16.35 692.34-18.25 691.74-20.15 690.77-21.38 689.79-22.6 688.52-23.18 687.24-23.75 685.94-23.75ZM706.19 0L706.19-26 732.19-26Q739.34-26 742.76-23.43 746.19-20.85 746.19-15.75L746.19-15.75 746.19 0 739.19 0 739.19-15.75Q739.19-19.35 737.39-20.93 735.59-22.5 732.19-22.5L732.19-22.5 729.69-22.5 729.69 0 722.69 0 722.69-22.5 713.19-22.5 713.19 0 706.19 0ZM767.94-2.5L767.94-2.5Q770.39-2.5 772.51-3.35 774.64-4.2 776.69-5.75L776.69-5.75 778.69-2.75Q777.74-1.9 776.46-1.2 775.19-0.5 773.71-0.03 772.24 0.45 770.64 0.73 769.04 1 767.44 1L767.44 1Q763.89 1 760.96 0.08 758.04-0.85 755.99-2.63 753.94-4.4 752.81-7 751.69-9.6 751.69-13L751.69-13Q751.69-16.35 752.76-18.98 753.84-21.6 755.76-23.38 757.69-25.15 760.34-26.08 762.99-27 766.19-27L766.19-27Q769.19-27 771.84-26.1 774.49-25.2 776.44-23.48 778.39-21.75 779.54-19.3 780.69-16.85 780.69-13.75L780.69-13.75 780.69-10.25 759.34-10.25Q759.94-6.1 762.21-4.3 764.49-2.5 767.94-2.5ZM766.19-23.75L766.19-23.75Q764.74-23.75 763.49-23.2 762.24-22.65 761.31-21.45 760.39-20.25 759.81-18.35 759.24-16.45 759.19-13.75L759.19-13.75 773.19-13.75Q773.19-16.35 772.59-18.25 771.99-20.15 771.01-21.38 770.04-22.6 768.76-23.18 767.49-23.75 766.19-23.75ZM813.93-15.75L813.93 0 806.93 0 806.93-15.75Q806.93-19.35 805.13-20.93 803.33-22.5 799.93-22.5L799.93-22.5 793.43-22.5 793.43 0 786.43 0 786.43-26 799.93-26Q807.08-26 810.51-23.43 813.93-20.85 813.93-15.75L813.93-15.75ZM888.18-9.25L888.18-9.25Q888.18-7.1 887.28-5.23 886.38-3.35 884.35-1.98 882.33-0.6 879.1 0.2 875.88 1 871.18 1L871.18 1Q868.53 1 866 0.6 863.48 0.2 861.2-0.55 858.93-1.3 857-2.38 855.08-3.45 853.68-4.75L853.68-4.75 856.18-7.75Q859.03-5.3 862.83-4.03 866.63-2.75 871.18-2.75L871.18-2.75Q876.23-2.75 878.33-4.15 880.43-5.55 880.43-8L880.43-8Q880.43-9.9 878.78-11.2 877.13-12.5 873.18-13.75L873.18-13.75 863.68-16.75Q858.98-18.25 856.58-20.58 854.18-22.9 854.18-26.5L854.18-26.5Q854.18-28.35 855.05-30.08 855.93-31.8 857.78-33.13 859.63-34.45 862.5-35.23 865.38-36 869.43-36L869.43-36Q871.88-36 874.3-35.6 876.73-35.2 878.95-34.45 881.18-33.7 883.1-32.63 885.03-31.55 886.43-30.25L886.43-30.25 883.93-27.25Q881.08-29.7 877.53-30.98 873.98-32.25 869.43-32.25L869.43-32.25Q865.68-32.25 863.8-30.95 861.93-29.65 861.93-27.75L861.93-27.75Q861.93-26.7 862.28-25.93 862.63-25.15 863.45-24.48 864.28-23.8 865.63-23.23 866.98-22.65 868.98-22L868.98-22 878.43-19Q882.98-17.55 885.58-15.2 888.18-12.85 888.18-9.25ZM898.92-8.25L898.92-8.25Q898.92-3.5 904.67-3.5L904.67-3.5 911.67-3.5 911.67-13 904.67-13Q898.92-13 898.92-8.25ZM904.67-16.5L911.67-16.5Q911.67-20.1 909.8-21.8 907.92-23.5 904.92-23.5L904.92-23.5Q902.67-23.5 900.52-22.83 898.37-22.15 896.67-21L896.67-21 894.92-24Q896.02-24.75 897.35-25.3 898.67-25.85 900.07-26.23 901.47-26.6 902.85-26.8 904.22-27 905.42-27L905.42-27Q908.62-27 911.07-26.25 913.52-25.5 915.22-24.1 916.92-22.7 917.8-20.78 918.67-18.85 918.67-16.5L918.67-16.5 918.67 0 904.67 0Q897.87 0 894.65-2.05 891.42-4.1 891.42-8.25L891.42-8.25Q891.42-12.4 894.65-14.45 897.87-16.5 904.67-16.5L904.67-16.5ZM952.92-15.75L952.92 0 945.92 0 945.92-15.75Q945.92-19.35 944.12-20.93 942.32-22.5 938.92-22.5L938.92-22.5 932.42-22.5 932.42 0 925.42 0 925.42-35 932.42-35 932.42-26 938.92-26Q946.07-26 949.5-23.43 952.92-20.85 952.92-15.75L952.92-15.75ZM966.92-25.5L966.92 0 959.92 0 959.92-25.5 966.92-25.5ZM967.17-32.25L967.17-32.25Q967.17-30.75 966.14-29.63 965.12-28.5 963.42-28.5L963.42-28.5Q961.72-28.5 960.69-29.63 959.67-30.75 959.67-32.25L959.67-32.25Q959.67-33.75 960.69-34.88 961.72-36 963.42-36L963.42-36Q965.07-36 966.12-34.88 967.17-33.75 967.17-32.25ZM1001.67-15.75L1001.67 0 994.67 0 994.67-15.75Q994.67-19.35 992.87-20.93 991.07-22.5 987.67-22.5L987.67-22.5 981.17-22.5 981.17 0 974.17 0 974.17-26 987.67-26Q994.82-26 998.24-23.43 1001.67-20.85 1001.67-15.75L1001.67-15.75Z" opacity="1" transform="matrix(1,0,0,1,0,0)" fill="#000000" class="slogan-text-1" data-fill-palette-color="secondary" id="text-1"></path></svg></g></svg></g></svg></g></svg></g></svg></g><defs></defs></svg><rect width="149.3245674080502" height="247.2" fill="none" stroke="none" visibility="hidden"></rect></g></svg></g></svg>