<?xml version="1.0" standalone="no"?>
<!DOCTYPE svg PUBLIC "-//W3C//DTD SVG 20010904//EN"
 "http://www.w3.org/TR/2001/REC-SVG-20010904/DTD/svg10.dtd">
<svg version="1.0" xmlns="http://www.w3.org/2000/svg"
 width="308.7612359841165" height="304.915625" viewBox="0 0 2000.000000 2157.000000"
 preserveAspectRatio="xMidYMid meet">

<g transform="translate(0.000000,2157.000000) scale(0.100000,-0.100000)"
fill="#000000" stroke="none">
<path d="M4918 21550 c-286 -71 -531 -297 -630 -580 -51 -147 -48 146 -48
-4666 0 -4046 2 -4482 16 -4552 68 -331 308 -588 649 -695 l70 -22 4980 -3
c3486 -2 5001 1 5050 8 302 46 578 269 694 560 66 168 61 -233 61 4698 0 3079
-3 4487 -11 4528 -59 333 -285 594 -616 712 l-78 27 -5030 2 c-4906 2 -5032 1
-5107 -17z m10028 -689 c51 -23 99 -81 113 -137 8 -29 11 -330 11 -953 l0
-911 -5070 0 -5070 0 0 911 c0 623 3 924 11 953 14 56 62 114 113 137 40 18
196 19 4946 19 4750 0 4906 -1 4946 -19z m-7696 -5916 l0 -3225 -1082 2 c-986
3 -1086 4 -1113 20 -39 21 -82 64 -103 103 -16 28 -17 268 -20 3165 -1 1724 0
3141 3 3148 3 9 245 12 1160 12 l1155 0 0 -3225z m7815 75 c0 -2909 -1 -3147
-17 -3175 -9 -17 -29 -43 -44 -59 -16 -15 -42 -35 -59 -44 -28 -16 -292 -17
-3512 -20 l-3483 -2 0 3225 0 3225 3558 -2 3557 -3 0 -3145z"/>
<path d="M11203 20355 c-161 -44 -296 -171 -344 -326 -26 -82 -25 -206 1 -290
62 -202 248 -339 459 -339 140 1 236 39 337 132 160 150 200 388 96 582 -36
68 -135 167 -200 200 -108 55 -240 70 -349 41z"/>
<path d="M12591 20354 c-30 -8 -77 -27 -105 -42 -65 -34 -163 -133 -198 -198
-132 -247 -30 -549 228 -671 67 -32 87 -37 174 -41 155 -7 272 37 375 143 90
94 135 206 135 342 0 315 -305 549 -609 467z"/>
<path d="M13974 20351 c-218 -62 -372 -286 -350 -507 37 -369 442 -566 752
-366 155 100 242 295 214 478 -44 289 -335 476 -616 395z"/>
<path d="M20 6795 l0 -2665 1205 0 1205 0 0 400 0 400 -615 0 -615 0 0 795 0
795 465 0 465 0 -2 408 -3 407 -462 3 -463 2 0 660 0 660 610 0 610 0 -2 398
-3 397 -1197 3 -1198 2 0 -2665z"/>
<path d="M5535 8097 c-66 -34 -142 -77 -168 -95 -91 -63 -211 -180 -273 -266
l-21 -29 -64 51 c-242 190 -608 272 -1034 232 -346 -33 -607 -138 -802 -324
-199 -188 -310 -428 -348 -756 -57 -481 48 -889 297 -1155 l60 -65 -73 -68
c-99 -91 -220 -239 -263 -322 -54 -101 -77 -203 -78 -335 -2 -280 117 -451
399 -570 43 -18 87 -36 97 -39 15 -5 -1 -18 -76 -60 -319 -176 -474 -388 -485
-666 -9 -203 39 -334 171 -466 129 -129 284 -207 530 -269 229 -58 357 -70
731 -69 257 0 358 4 455 18 413 57 662 155 852 334 200 189 301 478 285 817
-19 405 -203 694 -529 831 -170 72 -209 79 -913 158 -575 65 -685 82 -763 118
-115 55 -131 165 -42 305 l38 61 63 -19 c35 -11 117 -31 184 -44 468 -94 927
-29 1228 173 243 165 403 438 464 792 21 120 23 450 5 565 -21 125 -59 269
-96 358 -19 45 -31 86 -28 91 7 12 278 141 443 211 l136 58 -57 121 c-97 204
-190 386 -198 386 -4 -1 -61 -29 -127 -63z m-1228 -765 c51 -27 76 -58 103
-130 47 -126 69 -446 51 -729 -24 -350 -83 -456 -264 -470 -123 -10 -217 39
-258 135 -46 107 -54 187 -54 552 1 380 8 442 62 549 47 92 111 123 238 118
57 -3 92 -10 122 -25z m-154 -3112 c543 -56 642 -75 744 -143 69 -46 95 -101
91 -192 -5 -89 -28 -138 -87 -180 -81 -59 -217 -89 -471 -106 -323 -21 -647
13 -780 81 -200 102 -207 321 -17 512 53 54 74 68 98 68 16 0 206 -18 422 -40z"/>
<path d="M11075 7999 c-160 -15 -348 -72 -484 -147 -60 -33 -171 -113 -253
-182 l-38 -32 0 146 0 146 -525 0 -525 0 0 -1900 0 -1900 525 0 525 0 0 1503
0 1503 63 36 c233 137 425 126 494 -27 17 -38 18 -122 23 -1525 l5 -1485 518
-3 517 -2 0 1499 0 1500 29 20 c81 58 254 121 331 121 89 0 163 -46 196 -123
18 -40 19 -106 22 -1529 l2 -1488 525 0 525 0 -3 1593 -2 1592 -22 81 c-51
189 -119 319 -222 421 -146 145 -341 206 -589 182 -308 -29 -541 -136 -771
-354 l-90 -86 -34 68 c-144 284 -386 406 -742 372z"/>
<path d="M7240 7994 c-324 -38 -510 -101 -700 -235 -231 -163 -376 -405 -436
-724 -18 -93 -19 -162 -19 -1010 l0 -910 23 -105 c31 -140 65 -238 117 -337
182 -346 494 -539 960 -594 139 -16 451 -6 576 20 270 55 469 158 627 326 121
129 192 265 239 462 24 100 26 129 30 411 l5 302 -491 0 -491 0 0 -197 c0
-331 -24 -443 -108 -513 -103 -85 -282 -74 -356 23 -14 19 -36 60 -48 93 -22
57 -22 73 -26 512 l-3 452 760 0 761 0 0 454 c0 346 -4 482 -15 568 -74 562
-387 893 -930 984 -87 14 -404 27 -475 18z m262 -774 c92 -25 151 -124 168
-281 5 -52 10 -178 10 -281 l0 -188 -270 0 -270 0 0 233 c0 257 11 334 57 418
56 104 160 137 305 99z"/>
<path d="M15235 7990 c-341 -39 -602 -156 -796 -357 -138 -143 -221 -297 -274
-508 -41 -163 -45 -255 -45 -1100 0 -657 3 -825 15 -918 66 -507 364 -855 837
-981 167 -44 230 -51 478 -51 204 0 250 3 348 23 514 104 815 404 886 884 11
75 16 181 16 362 l0 256 -489 0 -489 0 -4 -262 c-6 -292 -13 -333 -71 -410
-48 -64 -113 -93 -208 -93 -67 0 -81 4 -124 30 -32 20 -57 47 -77 81 -53 94
-58 147 -58 607 l0 417 760 0 760 0 0 458 c0 537 -10 650 -77 850 -127 384
-425 623 -868 698 -109 18 -410 26 -520 14z m330 -779 c47 -21 90 -68 116
-126 28 -63 39 -180 39 -406 l0 -209 -271 0 -271 0 4 258 c4 228 7 264 26 322
23 69 56 122 94 148 61 43 181 49 263 13z"/>
<path d="M19125 7990 c-215 -33 -450 -157 -675 -354 l-85 -75 -3 184 -2 185
-535 0 -535 0 0 -1900 0 -1900 535 0 535 0 0 1488 0 1487 52 35 c144 93 307
126 398 78 33 -17 51 -35 70 -73 l25 -49 3 -1483 2 -1483 535 0 535 0 0 1523
c0 959 -4 1555 -10 1612 -42 374 -225 636 -495 710 -72 19 -267 28 -350 15z"/>
<path d="M13050 735 l0 -516 83 3 82 3 3 513 2 512 -85 0 -85 0 0 -515z"/>
<path d="M5645 1231 c-114 -28 -185 -123 -185 -247 l0 -53 -52 -3 -53 -3 -3
-41 c-4 -48 11 -64 66 -73 l37 -6 3 -293 2 -292 85 0 85 0 0 290 0 289 88 3
87 3 0 60 0 60 -92 3 -93 3 0 32 c0 94 45 147 126 147 52 0 64 13 64 71 0 44
-2 47 -31 53 -39 8 -95 6 -134 -3z"/>
<path d="M4073 1211 c-125 -43 -196 -142 -195 -272 0 -147 72 -222 262 -279
92 -28 127 -45 163 -78 23 -22 27 -34 27 -79 0 -44 -5 -58 -31 -87 -60 -69
-179 -69 -291 -1 -78 49 -101 46 -138 -12 -16 -27 -30 -53 -30 -59 0 -18 99
-82 165 -105 78 -28 228 -31 295 -5 139 53 220 182 207 329 -11 118 -82 187
-251 243 -104 34 -171 68 -190 96 -25 35 -20 91 9 127 53 63 159 67 268 11 76
-39 83 -37 123 41 l24 48 -33 24 c-17 14 -43 30 -57 37 -80 42 -238 52 -327
21z"/>
<path d="M9840 720 l0 -500 208 0 c128 1 236 6 282 14 225 40 377 210 397 441
18 213 -83 403 -259 489 -100 50 -148 56 -404 56 l-224 0 0 -500z m502 334
c130 -44 209 -194 195 -369 -9 -98 -32 -157 -83 -214 -71 -79 -113 -94 -281
-99 l-143 -4 0 351 0 351 133 0 c94 0 147 -5 179 -16z"/>
<path d="M6012 1142 c-7 -5 -20 -51 -29 -103 -9 -52 -20 -99 -25 -105 -5 -6
-31 -14 -58 -18 l-50 -7 0 -44 c0 -49 16 -65 69 -65 l29 0 4 -227 c3 -200 5
-233 22 -266 40 -81 142 -114 251 -83 32 10 68 24 81 33 l24 15 -22 40 c-32
56 -41 62 -81 47 -44 -16 -81 -6 -95 26 -8 17 -12 93 -12 220 l0 195 95 0 95
0 0 65 0 65 -95 0 -95 0 0 110 0 110 -47 0 c-27 0 -54 -4 -61 -8z"/>
<path d="M4813 921 c-142 -49 -217 -168 -217 -346 1 -124 27 -191 103 -265 73
-72 135 -95 251 -94 221 1 349 148 338 389 -3 83 -8 102 -38 161 -40 78 -102
132 -182 158 -67 21 -189 20 -255 -3z m230 -136 c48 -36 71 -98 72 -200 0
-145 -35 -211 -128 -236 -29 -8 -53 -7 -88 1 -93 23 -136 109 -127 259 5 93
35 154 88 183 46 25 143 21 183 -7z"/>
<path d="M7689 921 c-55 -18 -149 -74 -149 -90 0 -4 10 -23 23 -42 30 -45 59
-47 138 -9 137 65 229 19 229 -116 l0 -30 -99 -12 c-235 -28 -347 -119 -321
-262 29 -157 244 -199 399 -79 32 25 35 24 49 -15 13 -36 33 -46 95 -46 l37 0
0 265 c0 216 -3 273 -15 302 -44 106 -122 153 -250 152 -48 0 -102 -7 -136
-18z m239 -463 l-3 -62 -48 -30 c-65 -40 -141 -47 -180 -16 -24 19 -28 28 -25
63 2 30 10 45 30 60 34 26 110 45 176 46 l53 1 -3 -62z"/>
<path d="M8542 923 c-18 -9 -53 -38 -77 -65 l-45 -50 0 29 c0 17 -5 44 -11 62
-11 31 -12 31 -80 31 l-69 0 0 -355 0 -355 85 0 85 0 0 223 0 224 31 42 c40
56 86 75 162 67 54 -5 58 -4 67 19 19 49 24 126 9 136 -23 14 -122 10 -157 -8z"/>
<path d="M9020 931 c-105 -32 -189 -118 -221 -224 -29 -94 -22 -210 17 -298
65 -144 219 -219 389 -190 77 14 137 39 185 80 l34 28 -28 34 c-43 52 -49 53
-122 19 -78 -37 -169 -43 -222 -16 -40 21 -77 70 -91 121 -22 81 -39 75 219
75 l230 0 12 25 c13 30 -4 149 -28 198 -28 55 -95 116 -152 137 -55 21 -171
26 -222 11z m196 -142 c33 -31 54 -71 54 -104 l0 -25 -159 0 -160 0 9 30 c26
91 82 132 172 127 44 -3 64 -9 84 -28z"/>
<path d="M11040 923 c-140 -49 -220 -172 -220 -338 0 -169 83 -302 218 -349
131 -47 291 -20 395 66 l28 23 -28 37 c-15 20 -34 40 -42 43 -8 3 -44 -8 -80
-25 -77 -36 -167 -43 -218 -16 -59 30 -103 104 -103 173 l0 23 233 2 232 3 3
64 c5 96 -21 164 -84 228 -38 38 -65 55 -104 67 -68 20 -172 20 -230 -1z m197
-123 c40 -24 62 -57 70 -104 l6 -36 -162 0 -162 0 6 23 c21 69 55 111 105 130
34 13 106 6 137 -13z"/>
<path d="M12485 929 c-59 -17 -138 -74 -172 -122 -110 -161 -71 -429 76 -531
134 -93 344 -81 474 26 l28 23 -28 37 c-15 20 -34 40 -42 43 -8 3 -44 -8 -80
-25 -108 -51 -208 -43 -268 22 -25 26 -53 98 -53 134 l0 24 229 0 c153 0 232
4 236 11 13 20 5 134 -12 184 -26 72 -104 149 -173 169 -57 17 -166 20 -215 5z
m182 -129 c40 -24 62 -57 70 -104 l6 -36 -162 0 -162 0 6 23 c21 69 55 111
105 130 34 13 106 6 137 -13z"/>
<path d="M13595 927 c-97 -32 -158 -87 -202 -182 -25 -54 -28 -71 -28 -165 0
-86 5 -115 24 -163 30 -77 102 -148 178 -178 67 -26 191 -31 260 -11 96 28
186 118 215 215 20 64 16 222 -5 285 -25 70 -101 152 -169 182 -65 29 -210 37
-273 17z m205 -140 c58 -38 74 -79 78 -193 4 -87 1 -107 -18 -152 -29 -68 -72
-95 -150 -95 -76 0 -114 23 -147 90 -23 49 -25 61 -21 155 4 117 20 157 78
195 46 32 134 32 180 0z"/>
<path d="M14465 916 c-27 -13 -62 -36 -77 -50 -15 -14 -29 -26 -31 -26 -3 0
-7 18 -11 39 -7 46 -17 51 -97 51 l-59 0 0 -465 0 -465 85 0 85 0 0 135 c0 74
2 135 4 135 2 0 28 -12 57 -27 44 -23 65 -28 124 -27 83 1 130 20 189 74 169
156 139 546 -48 631 -61 27 -158 25 -221 -5z m125 -121 c98 -50 108 -319 16
-411 -55 -55 -158 -55 -218 1 l-28 26 0 153 c0 138 2 156 20 179 45 58 149 83
210 52z"/>
<path d="M15150 923 c-140 -49 -220 -172 -220 -338 0 -169 83 -302 218 -349
131 -47 291 -20 395 66 l28 23 -28 37 c-15 20 -34 40 -42 43 -8 3 -44 -8 -80
-25 -77 -36 -167 -43 -218 -16 -59 30 -103 104 -103 173 l0 23 233 2 232 3 3
64 c5 96 -21 164 -84 228 -38 38 -65 55 -104 67 -68 20 -172 20 -230 -1z m197
-123 c40 -24 62 -57 70 -104 l6 -36 -162 0 -162 0 6 23 c21 69 55 111 105 130
34 13 106 6 137 -13z"/>
<path d="M15992 923 c-18 -9 -52 -38 -76 -65 l-43 -49 -6 51 c-3 28 -9 55 -12
60 -3 6 -37 10 -76 10 l-69 0 2 -352 3 -353 83 -3 82 -3 0 216 c0 195 2 219
20 255 32 63 72 85 158 85 85 0 87 3 97 88 6 45 4 62 -6 68 -23 15 -122 10
-157 -8z"/>
<path d="M6365 918 c2 -7 52 -163 110 -347 58 -184 108 -338 111 -343 9 -15
140 -10 154 6 6 8 45 122 86 253 41 130 77 239 79 242 3 2 5 -3 5 -11 0 -23
140 -471 152 -485 7 -8 37 -13 83 -13 l73 0 16 48 c73 229 206 652 206 656 0
3 -34 6 -75 6 -66 0 -76 -2 -89 -22 -8 -13 -42 -126 -76 -253 -70 -261 -68
-255 -69 -235 -2 29 -140 482 -152 496 -15 18 -132 19 -147 2 -5 -7 -44 -123
-85 -257 -41 -134 -77 -240 -79 -235 -3 5 -9 27 -13 49 -16 91 -115 439 -127
447 -7 4 -48 8 -90 8 -58 0 -76 -3 -73 -12z"/>
<path d="M11513 898 c8 -18 71 -178 142 -355 l128 -323 76 0 76 0 138 348 c75
191 137 350 137 355 0 9 -141 9 -157 -1 -15 -9 -183 -462 -183 -492 0 -31 -17
-15 -24 23 -8 44 -154 448 -168 464 -7 9 -38 13 -94 13 l-84 0 13 -32z"/>
</g>
</svg>
